# xmcd
#
# Track frame offsets:
#	150
#	14379
#	26910
#	40987
#	51577
#	62873
#	76715
#	89566
#	100777
#	111879
#	122284
#	136530
#
# Disc length: 2014 seconds
#
# Revision: 0
# Processed by: cddbd v1.5.2PL0 Copyright (c) Steve Scherf et al.
# Submitted via: EasyCDDAExtractor 9.0.0.1
#
DISCID=9707dc0c
DTITLE=Dean Martin - All-Time Greatest Hits
DYEAR=1900
DGENRE=
TTITLE0=That's amore
TTITLE1=Sway
TTITLE2=You belong to me
TTITLE3=Memories are made of this
TTITLE4=Return to me
TTITLE5=Volare (Nel blu dipinto di blu)
TTITLE6=Standing on the corner
TTITLE7=Innamorata
TTITLE8=On an evening in roma
TTITLE9=You're nobody till somebody loves you
TTITLE10=Non dimenticar
TTITLE11=Come back to sorrento
EXTD=
EXTT0=
EXTT1=
EXTT2=
EXTT3=
EXTT4=
EXTT5=
EXTT6=
EXTT7=
EXTT8=
EXTT9=
EXTT10=
EXTT11=
PLAYORDER=
